# xmcd
#
# Track frame offsets:
#	150
#	15550
#	28377
#	41598
#	54696
#	69626
#	83335
#	96613
#	108943
#	123924
#	141577
#	161322
#	184073
#	199161
#	209471
#	223096
#	236180
#	247826
#	261543
#	271820
#	287192
#	305734
#	320470
#
# Disc length: 4454 seconds
#
# Revision: 1
# Processed by: cddbd v1.5.1PL0 Copyright (c) Steve Scherf et al.
# Submitted via: EasyCDDAExtractor 6.2.0.3
#
DISCID=63116417
DTITLE=Hank Williams III - Risin' Outlaw - This Ain't Country
DYEAR=1900
DGENRE=
TTITLE0=I Don't Know
TTITLE1=You're The Reason
TTITLE2=If The Shoe Fits
TTITLE3=87 Southbound
TTITLE4=Lonesome For You
TTITLE5=What Did Love Ever Do To You
TTITLE6=On My Own
TTITLE7=Honky Tonk Girls
TTITLE8=Devil's Daughter
TTITLE9=Cocaine Blues
TTITLE10=Thunderstorms and Neon Signs
TTITLE11=Why Don't You Leave Me Alone
TTITLE12=Blue Devil
TTITLE13=Hellbilly Joker
TTITLE14=Hang On
TTITLE15=Life Of Sin
TTITLE16=Mary Fuckin' Jane
TTITLE17=Now He's Dead
TTITLE18=Tennessee Driver
TTITLE19=Runnin' Gunnin'
TTITLE20=10 Feet Down
TTITLE21=Pistol Packin' Mother Fucker
TTITLE22=Drink It And Drug It
EXTD=
EXTT0=
EXTT1=
EXTT2=
EXTT3=
EXTT4=
EXTT5=
EXTT6=
EXTT7=
EXTT8=
EXTT9=
EXTT10=
EXTT11=
EXTT12=
EXTT13=
EXTT14=
EXTT15=
EXTT16=
EXTT17=
EXTT18=
EXTT19=
EXTT20=
EXTT21=
EXTT22=
PLAYORDER=
